<svg id="Layer_1" data-name="Layer 1" xmlns="http://www.w3.org/2000/svg" viewBox="0 0 936.76 70.77"><defs><style>.cls-1{fill:#949fac;}</style></defs><title>logo</title><path class="cls-1" d="M5,65.88h6.85L10.4,72.73H3.55ZM7,56.75h6.85L12.34,63.6H5.49Zm1.94-9.13h6.85l-1.48,6.85H7.43Zm5.25,18.26H21l-1.48,6.85H12.68Zm.57-45.66h6.85L20.1,27.07H13.25ZM18,47.62h6.85l-1.48,6.85H16.56Zm5.25,18.26h6.85l-1.48,6.85H21.81Zm.57-45.66h6.85l-1.48,6.85H22.38Zm3.31,27.4H34l-1.48,6.85H25.69Zm5.25,18.26h6.85l-1.48,6.85H30.94ZM33,20.22h6.85l-1.48,6.85H31.51Zm1.37,36.53h6.85L39.73,63.6H32.88Zm1.94-9.13h6.85l-1.48,6.85H34.82Zm1.94-9.13H45.1l-1.48,6.85H36.76Zm1.94-9.13H47L45.55,36.2H38.7Zm1.94-9.13H49l-1.48,6.85H40.64Z" transform="translate(-3.55 -1.96)"/><path class="cls-1" d="M50.69,65.88h6.85l-1.48,6.85H49.21Zm3.88-18.26h6.85l-1.48,6.85H53.09Zm1.94-9.13h6.85l-1.48,6.85H55Zm1.94-9.13H65.3L63.82,36.2H57Zm1.37,36.53h6.85l-1.48,6.85H58.34Zm.57-45.66h6.85l-1.48,6.85H58.91Zm3.31,27.4h6.85l-1.48,6.85H62.22ZM69,65.88H75.8l-1.48,6.85H67.47Zm.57-45.66h6.85l-1.48,6.85H68Zm3.31,27.4h6.85L78.2,54.47H71.35Zm5.25,18.26h6.85l-1.48,6.85H76.6Zm.57-45.66h6.85L84,27.07H77.17ZM80,56.75h6.85L85.39,63.6H78.54ZM82,47.62h6.85l-1.48,6.85H80.48Zm5.82-27.4h6.85l-1.48,6.85H86.31Z" transform="translate(-3.55 -1.96)"/><path class="cls-1" d="M96.35,65.88h6.85l-1.48,6.85H94.87Zm1.94-9.13h6.85l-1.48,6.85H96.81Zm1.94-9.13h6.85l-1.48,6.85H98.75Zm1.94-9.13H109l-1.48,6.85h-6.85Zm1.94-9.13H111l-1.48,6.85h-6.85Zm1.37,36.53h6.85l-1.48,6.85H104Zm.57-45.66h6.85l-1.48,6.85h-6.85Zm8.56,45.66h6.85L120,72.73h-6.85Zm.57-45.66H122l-1.48,6.85H113.7Zm8.56,45.66h6.85l-1.48,6.85h-6.85Zm.57-45.66h6.85l-1.48,6.85h-6.85Zm9.13,0h6.85l-1.48,6.85H132Z" transform="translate(-3.55 -1.96)"/><path class="cls-1" d="M151.14,65.88H158l-1.48,6.85h-6.85Zm.57-45.66h6.85l-1.48,6.85h-6.85Zm1.37,36.53h6.85l-1.48,6.85H151.6ZM155,47.62h6.85l-1.48,6.85h-6.85ZM157,38.49h6.85l-1.48,6.85h-6.85Zm1.94-9.13h6.85l-1.48,6.85h-6.85Zm1.94-9.13h6.85l-1.48,6.85h-6.85ZM164.73,2h6.85l-1.48,6.85h-6.85Z" transform="translate(-3.55 -1.96)"/><path class="cls-1" d="M176.6,65.88h6.85L182,72.73h-6.85Zm.57-45.66H184l-1.48,6.85h-6.85Zm1.37,36.53h6.85l-1.48,6.85h-6.85Zm1.94-9.13h6.85l-1.48,6.85H179Zm1.94-9.13h6.85l-1.48,6.85h-6.85Zm1.94-9.13h6.85l-1.48,6.85h-6.85Zm1.94-9.13h6.85l-1.48,6.85h-6.85ZM190.19,2H197l-1.48,6.85H188.7Z" transform="translate(-3.55 -1.96)"/><path class="cls-1" d="M199.89,38.49h6.85l-1.48,6.85H198.4Zm9.13,0h6.85l-1.48,6.85h-6.85Z" transform="translate(-3.55 -1.96)"/><path class="cls-1" d="M220.32,65.88h6.85l-1.48,6.85h-6.85Zm1.94-9.13h6.85l-1.48,6.85h-6.85Zm1.94-9.13H231l-1.48,6.85h-6.85Zm5.25,18.26h6.85l-1.48,6.85H228ZM230,20.22h6.85l-1.48,6.85h-6.85Zm3.31,27.4h6.85l-1.48,6.85h-6.85Zm5.25,18.26h6.85l-1.48,6.85H237.1Zm.57-45.66H246l-1.48,6.85h-6.85Zm3.31,27.4h6.85l-1.48,6.85H241Zm5.25,18.26h6.85l-1.48,6.85h-6.85Zm.57-45.66h6.85l-1.48,6.85H246.8Zm1.37,36.53h6.85L255,63.6h-6.85Zm1.94-9.13h6.85L257,54.47h-6.85Zm1.94-9.13h6.85l-1.48,6.85h-6.85Zm1.94-9.13h6.85l-1.48,6.85H254Zm1.94-9.13h6.85l-1.48,6.85h-6.85Z" transform="translate(-3.55 -1.96)"/><path class="cls-1" d="M266,65.88h6.85l-1.48,6.85H264.5Zm1.94-9.13h6.85l-1.48,6.85h-6.85Zm1.94-9.13h6.85l-1.48,6.85h-6.85Zm1.94-9.13h6.85l-1.48,6.85h-6.85Zm1.94-9.13h6.85l-1.48,6.85h-6.85Zm1.94-9.13h6.85L281,27.07H274.2Zm9.13,0h6.85l-1.48,6.85h-6.85Zm9.13,0h6.85l-1.48,6.85h-6.85Zm9.13,0h6.85l-1.48,6.85h-6.85Z" transform="translate(-3.55 -1.96)"/><path class="cls-1" d="M320.77,65.88h6.85l-1.48,6.85h-6.85Zm.57-45.66h6.85l-1.48,6.85h-6.85Zm1.37,36.53h6.85l-1.48,6.85h-6.85Zm1.94-9.13h6.85L330,54.47h-6.85Zm1.94-9.13h6.85L332,45.34h-6.85Zm1.94-9.13h6.85L333.9,36.2h-6.85Zm1.37,36.53h6.85l-1.48,6.85h-6.85Zm.57-45.66h6.85l-1.48,6.85H329Zm1.94-9.13h6.85l-1.48,6.85h-6.85ZM334.36,2h6.85l-1.48,6.85h-6.85ZM339,65.88h6.85l-1.48,6.85h-6.85Zm.57-45.66h6.85L345,27.07h-6.85Zm9.13,0h6.85l-1.48,6.85h-6.85Z" transform="translate(-3.55 -1.96)"/><path class="cls-1" d="M356.27,38.49h6.85l-1.48,6.85h-6.85Zm9.13,0h6.85l-1.48,6.85h-6.85Z" transform="translate(-3.55 -1.96)"/><path class="cls-1" d="M376.71,65.88h6.85l-1.48,6.85h-6.85Zm3.88-18.26h6.85L386,54.47H379.1Zm1.94-9.13h6.85l-1.48,6.85H381Zm1.94-9.13h6.85l-1.48,6.85H383Zm1.37,36.53h6.85l-1.48,6.85h-6.85Zm.57-45.66h6.85l-1.48,6.85h-6.85Zm3.31,27.4h6.85l-1.48,6.85h-6.85ZM395,65.88h6.85l-1.48,6.85h-6.85Zm.57-45.66h6.85l-1.48,6.85h-6.85Zm3.31,27.4h6.85l-1.48,6.85h-6.85Zm5.25,18.26H411l-1.48,6.85h-6.85Zm.57-45.66h6.85L410,27.07h-6.85ZM406,56.75h6.85l-1.48,6.85h-6.85ZM408,47.62h6.85l-1.48,6.85H406.5Zm1.94-9.13h6.85l-1.48,6.85h-6.85Zm1.94-9.13h6.85l-1.48,6.85h-6.85Zm1.94-9.13h6.85l-1.48,6.85h-6.85Z" transform="translate(-3.55 -1.96)"/><path class="cls-1" d="M896.36,65.88h6.85l-1.48,6.85h-6.85Zm3.88-18.26h6.85l-1.48,6.85h-6.85Zm1.94-9.13H909l-1.48,6.85H900.7Zm1.94-9.13H911l-1.48,6.85h-6.85Zm1.37,36.53h6.85l-1.48,6.85H904Zm.57-45.66h6.85l-1.48,6.85h-6.85Zm3.31,27.4h6.85l-1.48,6.85h-6.85Zm5.25,18.26h6.85L920,72.73h-6.85Zm.57-45.66H922l-1.48,6.85h-6.85Zm3.31,27.4h6.85l-1.48,6.85H917Zm5.25,18.26h6.85l-1.48,6.85h-6.85Zm.57-45.66h6.85l-1.48,6.85h-6.85Zm1.37,36.53h6.85l-1.48,6.85h-6.85Zm1.94-9.13h6.85L933,54.47h-6.85Zm1.94-9.13h6.85l-1.48,6.85h-6.85Zm1.94-9.13h6.85l-1.48,6.85H930Zm1.94-9.13h6.85l-1.48,6.85H932Z" transform="translate(-3.55 -1.96)"/><path class="cls-1" d="M422.37,65.88h6.85l-1.48,6.85h-6.85Zm1.94-9.13h6.85l-1.48,6.85h-6.85Zm1.94-9.13h6.85l-1.48,6.85h-6.85Zm1.94-9.13H435l-1.48,6.85h-6.85Zm1.94-9.13H437L435.5,36.2h-6.85Zm1.37,36.53h6.85l-1.48,6.85H430Zm.57-45.66h6.85l-1.48,6.85h-6.85Zm3.31,27.4h6.85l-1.48,6.85H433.9Zm5.25,18.26h6.85L446,72.73h-6.85Zm.57-45.66h6.85l-1.48,6.85h-6.85Zm3.31,27.4h6.85l-1.48,6.85H443Zm5.25,18.26h6.85l-1.48,6.85h-6.85Zm.57-45.66h6.85l-1.48,6.85h-6.85Zm3.31,27.4h6.85L459,54.47h-6.85Zm1.94-9.13h6.85l-1.48,6.85H454.1Zm1.94-9.13h6.85l-1.48,6.85H456Zm1.94-9.13h6.85l-1.48,6.85H458Z" transform="translate(-3.55 -1.96)"/><path class="cls-1" d="M468,65.88h6.85l-1.48,6.85h-6.85ZM470,56.75h6.85l-1.48,6.85h-6.85Zm1.94-9.13h6.85l-1.48,6.85h-6.85Zm1.94-9.13h6.85l-1.48,6.85h-6.85Zm1.94-9.13h6.85l-1.48,6.85h-6.85Zm1.94-9.13h6.85l-1.48,6.85h-6.85Zm9.13,0h6.85l-1.48,6.85h-6.85Zm8.56,45.66h6.85l-1.48,6.85h-6.85ZM496,20.22h6.85l-1.48,6.85h-6.85Zm1.37,36.53h6.85l-1.48,6.85h-6.85Zm1.94-9.13h6.85l-1.48,6.85h-6.85Zm1.94-9.13h6.85l-1.48,6.85h-6.85Zm1.94-9.13H510l-1.48,6.85H501.7Zm1.94-9.13H512l-1.48,6.85h-6.85Z" transform="translate(-3.55 -1.96)"/><path class="cls-1" d="M513.69,65.88h6.85l-1.48,6.85H512.2Zm1.94-9.13h6.85L521,63.6h-6.85Zm1.94-9.13h6.85l-1.48,6.85h-6.85Zm1.94-9.13h6.85l-1.48,6.85H518Zm1.94-9.13h6.85l-1.48,6.85H520Zm1.37,36.53h6.85l-1.48,6.85h-6.85Zm.57-45.66h6.85l-1.48,6.85h-6.85Zm3.31,27.4h6.85l-1.48,6.85h-6.85ZM532,65.88h6.85l-1.48,6.85h-6.85Zm.57-45.66h6.85l-1.48,6.85H531Zm3.31,27.4h6.85l-1.48,6.85h-6.85Zm5.25,18.26h6.85l-1.48,6.85H539.6Zm.57-45.66h6.85L547,27.07h-6.85ZM545,47.62h6.85l-1.48,6.85h-6.85Zm1.94-9.13h6.85l-1.48,6.85h-6.85Zm1.94-9.13h6.85l-1.48,6.85h-6.85Zm1.94-9.13h6.85l-1.48,6.85H549.3Z" transform="translate(-3.55 -1.96)"/><path class="cls-1" d="M559.35,65.88h6.85l-1.48,6.85h-6.85Zm1.94-9.13h6.85l-1.48,6.85h-6.85Zm1.94-9.13h6.85l-1.48,6.85h-6.85Zm1.94-9.13H572l-1.48,6.85h-6.85Zm1.94-9.13H574l-1.49,6.85h-6.85Zm1.94-9.13h6.85l-1.48,6.85h-6.85Zm9.13,0H585l-1.48,6.85H576.7Zm9.13,0h6.85l-1.48,6.85h-6.85Zm9.13,0h6.85l-1.48,6.85H595Z" transform="translate(-3.55 -1.96)"/><path class="cls-1" d="M605,65.88h6.85l-1.48,6.85h-6.85ZM607,56.75h6.85l-1.48,6.85h-6.85Zm1.94-9.13h6.85l-1.48,6.85h-6.85Zm5.25,18.26H621l-1.48,6.85h-6.85Zm.57-45.66h6.85l-1.48,6.85h-6.85ZM618,47.62h6.85l-1.48,6.85h-6.85Zm5.25,18.26h6.85l-1.48,6.85h-6.85Zm.57-45.66h6.85l-1.48,6.85h-6.85Zm3.31,27.4H634l-1.48,6.85h-6.85Zm5.25,18.26h6.85l-1.48,6.85h-6.85ZM633,20.22h6.85l-1.48,6.85h-6.85Zm1.37,36.53h6.85l-1.48,6.85h-6.85Zm1.94-9.13h6.85l-1.48,6.85H634.8Zm1.94-9.13h6.85l-1.48,6.85h-6.85Zm1.94-9.13H647l-1.48,6.85h-6.85Zm1.94-9.13H649l-1.48,6.85h-6.85Z" transform="translate(-3.55 -1.96)"/><path class="cls-1" d="M659.8,65.88h6.85l-1.48,6.85h-6.85Zm.57-45.66h6.85l-1.48,6.85h-6.85Zm1.37,36.53h6.85l-1.48,6.85h-6.85Zm1.94-9.13h6.85L669,54.47H662.2Zm1.94-9.13h6.85L671,45.34h-6.85Zm1.94-9.13h6.85l-1.49,6.85h-6.85Zm1.37,36.53h6.85l-1.48,6.85h-6.85Zm.57-45.66h6.85l-1.48,6.85H668Zm1.94-9.13h6.85l-1.48,6.85H670ZM673.39,2h6.85l-1.48,6.85H671.9Zm4.68,63.92h6.85l-1.48,6.85h-6.85Zm.57-45.66h6.85L684,27.07h-6.85Zm9.13,0h6.85l-1.48,6.85h-6.85Z" transform="translate(-3.55 -1.96)"/><path class="cls-1" d="M696.33,65.88h6.85l-1.48,6.85h-6.85Zm1.94-9.13h6.85l-1.48,6.85h-6.85Zm1.94-9.13h6.85l-1.48,6.85h-6.85Zm1.94-9.13H709l-1.48,6.85h-6.85Zm1.94-9.13h6.85l-1.48,6.85h-6.85Zm1.37,36.53h6.85l-1.48,6.85H704ZM706,20.22h6.85l-1.48,6.85h-6.85Zm8.56,45.66h6.85L720,72.73h-6.85Zm.57-45.66H722l-1.48,6.85h-6.85Zm8.56,45.66h6.85l-1.48,6.85h-6.85Zm.57-45.66h6.85l-1.48,6.85h-6.85Zm1.37,36.53h6.85L731,63.6h-6.85Zm1.94-9.13h6.85L733,54.47h-6.85Zm1.94-9.13h6.85l-1.48,6.85h-6.85Zm1.94-9.13h6.85l-1.49,6.85H730Zm1.94-9.13h6.85l-1.48,6.85h-6.85Z" transform="translate(-3.55 -1.96)"/><path class="cls-1" d="M742,65.88h6.85l-1.48,6.85h-6.85Zm1.94-9.13h6.85L749.3,63.6h-6.85Zm1.94-9.13h6.85l-1.48,6.85h-6.85Zm1.94-9.13h6.85l-1.48,6.85h-6.85Zm1.94-9.13h6.85l-1.48,6.85h-6.85Zm1.94-9.13h6.85l-1.48,6.85h-6.85Zm9.13,0h6.85l-1.48,6.85h-6.85Zm9.13,0h6.85l-1.48,6.85h-6.85Zm9.13,0h6.85l-1.48,6.85h-6.85Z" transform="translate(-3.55 -1.96)"/><path class="cls-1" d="M808.33,65.88h6.85l-1.48,6.85h-6.85Zm1.94-9.13h6.85l-1.48,6.85h-6.85Zm1.94-9.13h6.85l-1.48,6.85h-6.85Zm1.94-9.13H821l-1.48,6.85h-6.85Zm1.94-9.13h6.85l-1.48,6.85h-6.85Zm1.37,36.53h6.85l-1.48,6.85H816ZM818,20.22h6.85l-1.48,6.85h-6.85Zm8.56,45.66h6.85L832,72.73h-6.85Zm.57-45.66H834l-1.48,6.85h-6.85Zm8.56,45.66h6.85l-1.48,6.85h-6.85Zm.57-45.66h6.85l-1.48,6.85h-6.85Zm1.37,36.53h6.85L843,63.6h-6.85Zm1.94-9.13h6.85L845,54.47h-6.85Zm1.94-9.13h6.85l-1.48,6.85h-6.85Zm1.94-9.13h6.85l-1.49,6.85H842Zm1.94-9.13h6.85l-1.48,6.85h-6.85Z" transform="translate(-3.55 -1.96)"/><path class="cls-1" d="M854,65.88h6.85l-1.48,6.85h-6.85Zm1.94-9.13h6.85L861.3,63.6h-6.85Zm1.94-9.13h6.85l-1.48,6.85h-6.85Zm1.94-9.13h6.85l-1.48,6.85h-6.85Zm1.94-9.13h6.85l-1.48,6.85h-6.85Zm1.94-9.13h6.85l-1.48,6.85h-6.85Zm9.13,0h6.85l-1.48,6.85h-6.85Zm9.13,0h6.85l-1.48,6.85h-6.85Zm9.13,0h6.85l-1.48,6.85h-6.85Z" transform="translate(-3.55 -1.96)"/><path class="cls-1" d="M778.52,65.88h6.85l-1.48,6.85H777Zm1.94-9.13h6.85l-1.48,6.85H779Zm7.19,9.13h6.85L793,72.73h-6.85Zm1.94-9.13h6.85L795,63.6h-6.85Z" transform="translate(-3.55 -1.96)"/></svg>